# xmcd
#
# Track frame offsets:
#	150
#	15556
#	36012
#	51255
#	68925
#	83984
#	99709
#	116788
#	137844
#	202016
#	220027
#
# Disc length: 3139 seconds
#
# Revision: 0
# Processed by: cddbd v1.5.2PL0 Copyright (c) Steve Scherf et al.
# Submitted via: dBpowerAMP V4.0
#
DISCID=a00c410b
DTITLE=beyoncé - b day
DYEAR=1900
DGENRE=
TTITLE0=Suga Mama
TTITLE1=Upgrade U (Feat. Jay-Z)
TTITLE2=Ring The Alarm
TTITLE3=Kitty Kat
TTITLE4=Freakum Dress
TTITLE5=Green Light
TTITLE6=Irreplaceable
TTITLE7=Resentment
TTITLE8=Check On It (Feat. Bun B and Slim Thug) and Hidden Track
TTITLE9=Deja Vu (Feat. Jay-Z)
TTITLE10=Get Me Bodied
EXTD=
EXTT0=
EXTT1=
EXTT2=
EXTT3=
EXTT4=
EXTT5=
EXTT6=
EXTT7=
EXTT8=
EXTT9=
EXTT10=
PLAYORDER=
